# xmcd
# 
# Track frame offsets:
#     150
#     17515
#     38276
#     53846
#     71102
#     88957
#     102541
#     119129
#     135369
#     148070
#     162750
#     179225
#     193787
#     208618
#     226145
#     243358
# 
# Disc length: 3568
# 
# Revision: 0
# Processed by: cddbd v1.5.2PL0 Copyright (c) Steve Scherf et al.
# Submitted via: fre:ac v1.0.17
# 
DISCID=e70dee10
DTITLE=Various Artist - COUNTRY HEAT Kickin' Back
DYEAR=2014
DGENRE=Country
TTITLE0=Blake Shelton - God Gave Me You
TTITLE1=Brad Paisley - Southern Comfort Zone
TTITLE2=Kenny Chesney - Summertime
TTITLE3=Hunter Hayes - Wanted
TTITLE4=Carrie Underwood - One Way Ticket
TTITLE5=Brett Eldridge - Beat of the Music
TTITLE6=Jake Owen feat. Florida Georgia Line - Summer Jam
TTITLE7=Brett Kissel - 3, 2, 1
TTITLE8=Gord Bamford - Farm Girl Strong
TTITLE9=Jerrod Nieman - Lover, Lover
TTITLE10=Phil Vassar - Six-Pack Summer
TTITLE11=Kira Isabella - Gonna Be a Hot One
TTITLE12=Cole Swindell - Chillin' It
TTITLE13=Frankie Ballard - Helluva Life
TTITLE14=Tebey - Somewhere in the Country
TTITLE15=Zac Brown Band - Goodbye in Her Eyes
EXTD=
EXTT0=
EXTT1=
EXTT2=
EXTT3=
EXTT4=
EXTT5=
EXTT6=
EXTT7=
EXTT8=
EXTT9=
EXTT10=
EXTT11=
EXTT12=
EXTT13=
EXTT14=
EXTT15=
PLAYORDER=
